<svg xmlns="http://www.w3.org/2000/svg" viewBox="0 0 257.92 69.1"><defs><style>.a,.c{fill:#3e3a39;}.a{fill-opacity:0;}.b{fill:#0071bc;}</style></defs><title>logo</title><rect class="a" width="69.12" height="69.1"/><path class="b" d="M33.47,38.27,17.34,22.15,37.5,2l9,9-5.76,5.77-3.21-3.18L28.9,22.16,39.25,32.49ZM40,22.1,52,10.17,63.9,22.09,52,34ZM63.1,27.56l9,9-11.92,12-5.79-5.81,6.14-6.13L57.3,33.37Z" transform="translate(-2.95 -1.99)"/><path class="c" d="M11.28,50.87,23.2,38.93,35.12,50.87,23.2,62.79ZM3,36.54l12-11.92,5.78,5.77-6.17,6.14,3.2,3.2-5.78,5.79ZM34.33,56.33l3.18,3.2,8.62-8.6L35.81,40.61l5.78-5.77L57.68,50.93,37.51,71.09l-9-9Z" transform="translate(-2.95 -1.99)"/><path class="c" d="M88.33,38.85h0l2,.61A9.86,9.86,0,0,1,94.64,42,5.57,5.57,0,0,1,96,45.77h0a5.72,5.72,0,0,1-2.32,4.78,10.21,10.21,0,0,1-6.44,1.8h0a15,15,0,0,1-7.07-1.76h0l.15-5h2.22l1.08,4.63a8.39,8.39,0,0,0,3.31.62h0q4.68,0,4.68-3.3h0a3,3,0,0,0-.85-2.17,7.89,7.89,0,0,0-3-1.57h0l-2.1-.69C82.07,42,80.3,40,80.3,37.17h0a5.89,5.89,0,0,1,2.14-4.69,9,9,0,0,1,6-1.81h0a13.64,13.64,0,0,1,6.43,1.72h0L94.56,37H92.62l-1.19-4.12a6.35,6.35,0,0,0-2.9-.69h0A4.56,4.56,0,0,0,85.6,33a2.74,2.74,0,0,0-1,2.26h0a2.8,2.8,0,0,0,.82,2.08A7.47,7.47,0,0,0,88.33,38.85Zm18-13.24a3.25,3.25,0,0,1-4.29,0,2.6,2.6,0,0,1-.88-2h0a2.68,2.68,0,0,1,.88-2.07,3.28,3.28,0,0,1,4.29,0,2.7,2.7,0,0,1,.87,2.07h0A2.63,2.63,0,0,1,106.28,25.61Zm.56,24.64h0l2.57.3v1.19H98.89V50.55l2.79-.34c.06-2.9.08-5.39.08-7.45h0V40c0-2,0-3.91-.11-5.82h0l-3.1-.3v-1l7.76-2.17.53.34-.07,6v5.74C106.77,44.84,106.8,47.34,106.84,50.25Zm17.49-9.79,6.5,9.83,2.29.26v1.19H122l0-1.19,3-.26-4.52-6.92-4.55,6.84,2.91.34v1.19h-7.88V50.55l2.83-.34,6-8-6.19-9.49-2.26-.27V31.28H122V32.5l-2.67.3,4.28,6.51,4.32-6.43-2.79-.38V31.28h7.46V32.5l-2.6.38Zm33.2,11.89h0a10,10,0,0,1-7.44-2.92,10.86,10.86,0,0,1-2.89-8h0a10.5,10.5,0,0,1,3-7.88,10.75,10.75,0,0,1,14.69,0,10.5,10.5,0,0,1,3,7.88h0a10.82,10.82,0,0,1-2.9,8A10,10,0,0,1,157.53,52.35Zm0-1.42h0a4,4,0,0,0,3.65-2.37c.86-1.57,1.28-3.93,1.28-7.07h0c0-3.11-.42-5.46-1.28-7a4,4,0,0,0-3.65-2.37h0q-4.93,0-4.94,9.41h0Q152.59,50.94,157.53,50.93Z" transform="translate(-2.95 -1.99)"/><path class="c" d="M183.05,37.43h0l-.49-2.59a4.46,4.46,0,0,0-1.29-.16h0a4.59,4.59,0,0,0-3.91,2.07,9.78,9.78,0,0,0-1.47,5.73h0a8.64,8.64,0,0,0,1.64,5.57,5.32,5.32,0,0,0,4.37,2h0a5.73,5.73,0,0,0,4.78-2.49h0l.69.36a7.41,7.41,0,0,1-7.23,4.32h0a8.57,8.57,0,0,1-6.35-2.52,9.31,9.31,0,0,1-2.49-6.84h0A9,9,0,0,1,174,36a9.45,9.45,0,0,1,6.71-2.55h0a7.06,7.06,0,0,1,4.42,1.41,5.53,5.53,0,0,1,2.21,3.56h0A1.85,1.85,0,0,1,185.45,40h0C184,40,183.23,39.14,183.05,37.43Zm13.72,13h0l2.56.27v1H189.7v-1l2.56-.3c.06-2.09.09-4.24.09-6.48h0V27.11l-2.68-.21V26l6.67-1.43.46.3-.13,5.28V43.94Q196.67,47.26,196.77,50.45Zm13.84,1.82h0a8.64,8.64,0,0,1-6.45-2.53,9.42,9.42,0,0,1-2.51-6.93h0A9.09,9.09,0,0,1,204.24,36,9.32,9.32,0,0,1,217,36a9.12,9.12,0,0,1,2.58,6.84h0a9.43,9.43,0,0,1-2.52,6.93A8.7,8.7,0,0,1,210.61,52.27Zm0-1.23h0a3.5,3.5,0,0,0,3.18-2,13.36,13.36,0,0,0,1.1-6.14h0a13.29,13.29,0,0,0-1.1-6.12,3.48,3.48,0,0,0-3.18-2h0q-4.28,0-4.28,8.17h0Q206.33,51,210.61,51ZM234,37.43h0l-.49-2.59a4.48,4.48,0,0,0-1.3-.16h0a4.57,4.57,0,0,0-3.9,2.07,9.78,9.78,0,0,0-1.47,5.73h0a8.63,8.63,0,0,0,1.63,5.57,5.34,5.34,0,0,0,4.37,2h0a5.71,5.71,0,0,0,4.78-2.49h0l.7.36a7.43,7.43,0,0,1-7.23,4.32h0a8.55,8.55,0,0,1-6.35-2.52,9.31,9.31,0,0,1-2.49-6.84h0A9.05,9.05,0,0,1,225,36a9.47,9.47,0,0,1,6.71-2.55h0a7.09,7.09,0,0,1,4.43,1.41,5.53,5.53,0,0,1,2.21,3.56h0A1.87,1.87,0,0,1,236.38,40h0C235,40,234.16,39.14,234,37.43Zm18.53,1.89,6.1,11.13,2.26.27v1h-6.3l-5.08-9.6-1.89,1.8q0,3.69.09,6.51h0l2.36.27v1h-9.33v-1l2.49-.3c0-2.58.07-4.73.07-6.48h0V27.11l-2.68-.21V26l6.67-1.43.46.3-.13,5.28V42.38l7-6.87L251.38,35V34H260V35l-3.32.37Z" transform="translate(-2.95 -1.99)"/></svg>