<svg xmlns="http://www.w3.org/2000/svg" viewBox="0 0 700.33 231.5" style="opacity: 0.3;">
    <title>empty_state</title>
    <g>
        <path d="M22.83,307.36l-1.66-4.72c.13-.05,3.39-1.19,9.67-3l1.4,4.8C26.11,306.21,22.86,307.35,22.83,307.36Z"
              transform="translate(-21.17 -211)" style="fill:#c4c4c4"/>
        <path d="M682.28,414c-5.29-3.85-10.79-7.73-16.35-11.52l2.81-4.13c5.61,3.82,11.16,7.73,16.49,11.61ZM649.22,391.5c-5.55-3.54-11.28-7.08-17-10.5l2.56-4.3c5.78,3.46,11.55,7,17.15,10.59ZM614.87,371c-5.79-3.23-11.71-6.43-17.61-9.51l2.32-4.43c5.93,3.1,11.9,6.32,17.73,9.58ZM579.4,352.47c-6-2.9-12.07-5.76-18.11-8.5l2.06-4.55c6.09,2.75,12.22,5.63,18.24,8.56ZM542.94,336c-6.13-2.56-12.37-5.08-18.56-7.47l1.8-4.66c6.23,2.4,12.52,4.94,18.69,7.52Zm-37.32-14.41c-6.26-2.22-12.64-4.37-18.95-6.41l1.53-4.76c6.36,2.05,12.78,4.22,19.09,6.46ZM467.54,309.3c-6.38-1.86-12.87-3.65-19.28-5.32l1.26-4.84c6.46,1.69,13,3.49,19.42,5.36Zm-416-10-1.18-4.86c6.3-1.53,12.92-3,19.67-4.42l1,4.9C64.34,296.3,57.78,297.77,51.53,299.29Zm377.3-.07c-6.47-1.48-13.05-2.89-19.56-4.19l1-4.91c6.55,1.31,13.18,2.73,19.7,4.23ZM389.6,291.4c-6.55-1.11-13.2-2.14-19.77-3l.7-5c6.61.93,13.31,2,19.91,3.08Zm-298.92-.25-.87-4.93C96.31,285.08,103,284,109.7,283l.73,4.95C103.78,288.93,97.14,290,90.68,291.15ZM350,285.79c-6.61-.78-13.31-1.5-19.91-2.15l.49-5c6.64.65,13.37,1.38,20,2.17Zm-219.72-.52-.6-5c6.59-.8,13.33-1.54,20-2.19l.49,5C143.51,283.73,136.82,284.47,130.26,285.27Zm179.86-3.38c-6.64-.52-13.36-1-20-1.35l.29-5c6.64.38,13.4.83,20.08,1.35Zm-140-.51-.36-5c6.62-.48,13.38-.9,20.09-1.24l.25,5C183.41,280.48,176.69,280.9,170.1,281.38Zm100-1.77c-6.65-.24-13.39-.42-20-.52l.07-5c6.66.1,13.43.28,20.12.52Zm-60-.26-.14-5c6.64-.18,13.41-.3,20.12-.34l0,5C223.43,279.05,216.7,279.17,210.09,279.35Z"
              transform="translate(-21.17 -211)" style="fill:#c4c4c4"/>
        <path d="M705.93,432.31c-2.48-2-5.08-4.13-7.75-6.23l3.1-3.93c2.69,2.12,5.32,4.24,7.83,6.3Z"
              transform="translate(-21.17 -211)" style="fill:#c4c4c4"/>
        <polygon points="672.2 222.5 683.38 216.96 687.15 205.07 700.33 231.5 672.2 222.5" style="fill:#c4c4c4"/>
    </g>
    <circle cx="338.83" cy="74" r="69" style="fill:#303030"/>
    <circle cx="338.83" cy="74" r="51.42" style="fill:#5e8eb8"/>
    <path d="M360,359a74,74,0,1,1,74-74h0A74.09,74.09,0,0,1,360,359Zm0-140.47A66.47,66.47,0,1,0,426.47,285,66.47,66.47,0,0,0,360,218.53Z"
          transform="translate(-21.17 -211)" style="fill:#c4c4c4"/>
    <rect x="342.38" y="94.85" width="22.53" height="5.22" style="fill:#303030"/>
    <rect x="346.19" y="255.37" width="5.22" height="36.85" transform="translate(-112.61 115.83) rotate(-45)"
          style="fill:#303030"/>
    <rect x="330.37" y="293.6" width="36.86" height="5.22" transform="translate(-128.46 122.4) rotate(-45)"
          style="fill:#303030"/>
</svg>
