<svg xmlns="http://www.w3.org/2000/svg" viewBox="0 0 118 118"><title>drag_file</title><g id="Layer_1_copy" data-name="Layer 1 copy"><g id="Layer_5_copy" data-name="Layer 5 copy"><g id="Layer_2_copy_3" data-name="Layer 2 copy 3"><circle cx="59" cy="59" r="41" style="fill:#c3c3c3"/></g><g id="Layer_2_copy_3-2" data-name="Layer 2 copy 3-2"><path d="M59.42,117.47a59,59,0,1,1,59-59h0A59.08,59.08,0,0,1,59.42,117.47Zm0-112a53,53,0,1,0,53,53A53,53,0,0,0,59.42,5.47Z" transform="translate(-0.42 0.53)" style="fill:#c4c4c4"/></g></g></g><g id="Layer_6" data-name="Layer 6"><path d="M62.65,50.8A2.2,2.2,0,0,0,64.87,53H77.45V77.45a2.22,2.22,0,0,1-2.22,2.22H44.14a2.22,2.22,0,0,1-2.22-2.22v-37a2.22,2.22,0,0,1,2.22-2.22H62.65Zm3-.74V39.15a5,5,0,0,1,.83.64l9.44,9.44a5,5,0,0,1,.64.83Z" transform="translate(-0.42 0.53)" style="fill:#2c2c2c"/></g></svg>