<?xml version="1.0" encoding="utf-8"?>
<!-- Generator: Adobe Illustrator 23.0.0, SVG Export Plug-In . SVG Version: 6.00 Build 0)  -->
<svg version="1.1" id="图层_1" xmlns="http://www.w3.org/2000/svg" xmlns:xlink="http://www.w3.org/1999/xlink" x="0px" y="0px"
	 viewBox="0 0 262.9 72.6" style="enable-background:new 0 0 262.9 72.6;" xml:space="preserve">
<style type="text/css">
	.st0{fill:#3E3A39;fill-opacity:0;}
	.st1{fill:#0071BC;}
	.st2{fill:#3E3A39;}
</style>
<g transform="translate(58.055641174316406,95.00950813293457)">
	<g transform="translate(0,0)">
		<rect x="-55.1" y="-93" class="st0" width="69.1" height="69.1"/>
		<path class="st1" d="M-24.6-56.7l-16.1-16.1L-20.6-93l9,9l-5.8,5.8l-3.2-3.2l-8.6,8.6l10.4,10.3L-24.6-56.7z M-18-72.9l11.9-11.9
			L5.8-72.9L-6.1-61L-18-72.9z M5-67.5l9,9L2.1-46.5l-5.8-5.8l6.1-6.1l-3.2-3.2L5-67.5z"/>
		<path class="st2" d="M-46.8-44.1l11.9-11.9l11.9,11.9l-11.9,11.9L-46.8-44.1z M-55.1-58.5l12-11.9l5.8,5.8l-6.2,6.1l3.2,3.2
			l-5.8,5.8L-55.1-58.5z M-23.7-38.7l3.2,3.2l8.6-8.6l-10.3-10.3l5.8-5.8l16.1,16.1l-20.2,20.2l-9-9L-23.7-38.7z"/>
	</g>
	<g transform="translate(67.00951385498047,16.260491371154785)">
		<g>
			<g>
				<path class="st2" d="M-36.7-72.4L-36.7-72.4l2,0.6c2,0.7,3.4,1.5,4.3,2.5c0.9,1,1.3,2.3,1.3,3.8l0,0c0,2-0.8,3.6-2.3,4.8
					c-1.5,1.2-3.7,1.8-6.4,1.8l0,0c-2.5,0-4.9-0.6-7.1-1.8l0,0l0.1-5h2.2l1.1,4.6c1,0.4,2.1,0.6,3.3,0.6l0,0c3.1,0,4.7-1.1,4.7-3.3
					l0,0c0-0.9-0.3-1.6-0.9-2.2c-0.6-0.6-1.6-1.1-3-1.6l0,0l-2.1-0.7c-3.5-1.1-5.3-3.1-5.3-6l0,0c0-1.9,0.7-3.5,2.1-4.7
					c1.4-1.2,3.4-1.8,6-1.8l0,0c2.1,0,4.3,0.6,6.4,1.7l0,0l-0.3,4.6h-1.9l-1.2-4.1c-0.9-0.5-1.9-0.7-2.9-0.7l0,0
					c-1.3,0-2.2,0.3-2.9,0.8s-1,1.3-1,2.3l0,0c0,0.8,0.3,1.5,0.8,2.1S-38.2-72.9-36.7-72.4z M-18.8-85.7c-0.6,0.5-1.3,0.8-2.1,0.8
					c-0.8,0-1.6-0.3-2.1-0.8c-0.6-0.5-0.9-1.2-0.9-2l0,0c0-0.8,0.3-1.5,0.9-2.1c0.6-0.5,1.3-0.8,2.1-0.8c0.8,0,1.6,0.3,2.1,0.8
					c0.6,0.5,0.9,1.2,0.9,2.1l0,0C-17.9-86.9-18.2-86.2-18.8-85.7z M-18.2-61L-18.2-61l2.6,0.3v1.2h-10.5v-1.2l2.8-0.3
					c0.1-2.9,0.1-5.4,0.1-7.5l0,0v-2.7c0-2,0-3.9-0.1-5.8l0,0l-3.1-0.3v-1l7.8-2.2l0.5,0.3l-0.1,6v5.7C-18.3-66.4-18.3-63.9-18.2-61
					z M-0.7-70.8L5.8-61l2.3,0.3v1.2H-3l0-1.2l3-0.3l-4.5-6.9l-4.6,6.8l2.9,0.3v1.2h-7.9v-1.2l2.8-0.3l6-7.9l-6.2-9.5l-2.3-0.3V-80
					h10.7v1.2l-2.7,0.3l4.3,6.5l4.3-6.4l-2.8-0.4V-80h7.5v1.2l-2.6,0.4L-0.7-70.8z M32.5-58.9L32.5-58.9c-3,0-5.5-1-7.4-2.9
					c-1.9-2-2.9-4.6-2.9-8l0,0c0-3.3,1-5.9,3-7.9c2-1.9,4.4-2.9,7.3-2.9c2.9,0,5.3,1,7.3,2.9c2,1.9,3,4.6,3,7.9l0,0c0,3.4-1,6-2.9,8
					C37.9-59.9,35.5-58.9,32.5-58.9z M32.5-60.3L32.5-60.3c1.6,0,2.8-0.8,3.7-2.4c0.9-1.6,1.3-3.9,1.3-7.1l0,0c0-3.1-0.4-5.5-1.3-7
					c-0.9-1.6-2.1-2.4-3.7-2.4l0,0c-3.3,0-4.9,3.1-4.9,9.4l0,0C27.5-63.5,29.2-60.3,32.5-60.3z"/>
			</g>
			<g transform="translate(79.1300048828125,0)">
				<path class="st2" d="M-21.1-73.8L-21.1-73.8l-0.5-2.6c-0.4-0.1-0.8-0.2-1.3-0.2l0,0c-1.6,0-2.9,0.7-3.9,2.1
					c-1,1.4-1.5,3.3-1.5,5.7l0,0c0,2.4,0.5,4.2,1.6,5.6c1.1,1.4,2.5,2,4.4,2l0,0c1.9,0,3.5-0.8,4.8-2.5l0,0l0.7,0.4
					c-1.4,2.9-3.8,4.3-7.2,4.3l0,0c-2.6,0-4.7-0.8-6.3-2.5c-1.7-1.7-2.5-4-2.5-6.8l0,0c0-2.9,0.9-5.2,2.7-6.9c1.8-1.7,4-2.6,6.7-2.6
					l0,0c1.7,0,3.2,0.5,4.4,1.4c1.2,0.9,2,2.1,2.2,3.6l0,0c-0.3,1-0.9,1.6-1.9,1.6l0,0C-20.2-71.3-21-72.1-21.1-73.8z M-7.4-60.8
					L-7.4-60.8l2.6,0.3v1h-9.6v-1l2.6-0.3c0.1-2.1,0.1-4.2,0.1-6.5l0,0v-16.8l-2.7-0.2v-0.9l6.7-1.4l0.5,0.3l-0.1,5.3v13.8
					C-7.5-65.1-7.5-62.9-7.4-60.8z M6.4-59L6.4-59c-2.6,0-4.8-0.8-6.5-2.5c-1.7-1.7-2.5-4-2.5-6.9l0,0c0-2.9,0.9-5.2,2.6-6.8
					c1.7-1.7,3.9-2.5,6.4-2.5c2.5,0,4.7,0.8,6.4,2.5c1.7,1.7,2.6,4,2.6,6.8l0,0c0,2.9-0.8,5.2-2.5,6.9C11.2-59.8,9-59,6.4-59z
					 M6.4-60.2L6.4-60.2c1.4,0,2.4-0.7,3.2-2.1c0.7-1.4,1.1-3.4,1.1-6.1l0,0c0-2.7-0.4-4.7-1.1-6.1c-0.7-1.4-1.8-2.1-3.2-2.1l0,0
					c-2.8,0-4.3,2.7-4.3,8.2l0,0C2.1-63,3.6-60.2,6.4-60.2z M29.8-73.8L29.8-73.8l-0.5-2.6c-0.4-0.1-0.8-0.2-1.3-0.2l0,0
					c-1.6,0-2.9,0.7-3.9,2.1c-1,1.4-1.5,3.3-1.5,5.7l0,0c0,2.4,0.5,4.2,1.6,5.6c1.1,1.4,2.6,2,4.4,2l0,0c2,0,3.5-0.8,4.8-2.5l0,0
					l0.7,0.4c-1.4,2.9-3.8,4.3-7.2,4.3l0,0c-2.6,0-4.7-0.8-6.3-2.5c-1.7-1.7-2.5-4-2.5-6.8l0,0c0-2.9,0.9-5.2,2.7-6.9
					c1.8-1.7,4.1-2.6,6.7-2.6l0,0c1.7,0,3.2,0.5,4.4,1.4c1.2,0.9,2,2.1,2.2,3.6l0,0c-0.3,1-0.9,1.6-1.9,1.6l0,0
					C30.8-71.3,30-72.1,29.8-73.8z M48.3-71.9l6.1,11.1l2.3,0.3v1h-6.3l-5.1-9.6l-1.9,1.8c0,2.5,0,4.6,0.1,6.5l0,0l2.4,0.3v1h-9.3
					v-1l2.5-0.3c0-2.6,0.1-4.7,0.1-6.5l0,0v-16.8l-2.7-0.2v-0.9l6.7-1.4l0.5,0.3l-0.1,5.3v12.2l7-6.9l-3.2-0.5v-1.1h8.6v1.1
					l-3.3,0.4L48.3-71.9z"/>
			</g>
		</g>
	</g>
</g>
</svg>
