<svg data-v-1e121de1="" version="1.0" xmlns="http://www.w3.org/2000/svg" xmlns:xlink="http://www.w3.org/1999/xlink" width="100%" height="100%" viewBox="0 0 340.000000 250.000000" preserveAspectRatio="xMidYMid meet" color-interpolation-filters="sRGB" class="el-tooltip" style="margin: auto;"><rect data-v-1e121de1="" x="0" y="0" width="100%" height="100%" fill="#444" fill-opacity="0" class="background"></rect> <rect data-v-1e121de1="" x="0" y="0" width="100%" height="100%" fill="url(#watermark)" fill-opacity="1" class="watermarklayer"></rect> <g data-v-1e121de1="" fill="#fff" class="icon-text-wrapper icon-svg-group iconsvg" transform="translate(58.055641174316406,95.00950813293457)"><g class="iconsvg-imagesvg" transform="translate(0,0)"><rect fill="#fff" fill-opacity="0" stroke-width="2" x="0" y="0" width="60" height="59.98098015596273" class="image-rect"></rect> <svg filter="url(#colors671000117)" x="0" y="0" width="60" height="59.98098015596273" filtersec="colorsf1508728388" class="image-svg-svg primary"><svg xmlns="http://www.w3.org/2000/svg" viewBox="0 0 315.46 315.36"><path d="M139.27 165.59l-73.6-73.57 92-92 41 41-26.31 26.34-14.63-14.49-39.3 39.18 47.24 47.17zm30-73.82l54.51-54.41 54.4 54.4-54.4 54.4zM274.5 116.7l41 41-54.42 54.51-26.41-26.49 28-28-14.63-14.5z" fill="#0071bc"></path><path d="M37.99 223.1l54.42-54.52 54.41 54.52-54.41 54.4zm-38-65.42l54.54-54.4 26.37 26.36-28.17 28 14.62 14.62-26.36 26.4zm143.22 90.34l14.51 14.62 39.32-39.28-47.09-47.08 26.37-26.36 73.46 73.44-92.05 92-41-41z" fill="#3e3a39"></path></svg></svg> <defs><filter id="colors671000117"><feColorMatrix type="matrix" values="0 0 0 0 0.99609375  0 0 0 0 0.99609375  0 0 0 0 0.99609375  0 0 0 1 0" class="icon-fecolormatrix"></feColorMatrix></filter> <filter id="colorsf1508728388"><feColorMatrix type="matrix" values="0 0 0 0 0.99609375  0 0 0 0 0.99609375  0 0 0 0 0.99609375  0 0 0 1 0" class="icon-fecolormatrix"></feColorMatrix></filter> <filter id="colorsb8262296785"><feColorMatrix type="matrix" values="0 0 0 0 0  0 0 0 0 0  0 0 0 0 0  0 0 0 1 0" class="icon-fecolormatrix"></feColorMatrix></filter></defs></g> <g transform="translate(67.00951385498047,16.260491371154785)"><g fill-rule="" class="tp-name iconsvg-namesvg"><g><path d="M8.63-11.19L8.63-11.19L10.36-10.66Q12.95-9.79 14.11-8.47Q15.27-7.14 15.27-5.18L15.27-5.18Q15.27-2.59 13.26-1.03Q11.26 0.53 7.67 0.53L7.67 0.53Q4.42 0.53 1.53-1.00L1.53-1.00L1.66-5.31L3.59-5.31L4.52-1.29Q5.78-0.76 7.40-0.76L7.40-0.76Q11.46-0.76 11.46-3.62L11.46-3.62Q11.46-4.75 10.72-5.50Q9.99-6.24 8.10-6.87L8.10-6.87L6.28-7.47Q1.66-8.93 1.66-12.65L1.66-12.65Q1.66-15.14 3.52-16.72Q5.38-18.29 8.70-18.29L8.70-18.29Q11.46-18.29 14.28-16.80L14.28-16.80L14.04-12.82L12.35-12.82L11.32-16.40Q10.13-17 8.80-17L8.80-17Q7.17-17 6.26-16.27Q5.35-15.54 5.35-14.31L5.35-14.31Q5.35-13.21 6.06-12.50Q6.77-11.79 8.63-11.19ZM24.21-22.68Q23.44-21.98 22.35-21.98Q21.25-21.98 20.49-22.68Q19.72-23.38 19.72-24.44L19.72-24.44Q19.72-25.53 20.49-26.23Q21.25-26.93 22.35-26.93Q23.44-26.93 24.21-26.23Q24.97-25.53 24.97-24.44L24.97-24.44Q24.97-23.38 24.21-22.68ZM24.70-1.29L24.70-1.29L26.93-1.03L26.93 0L17.80 0L17.80-1.03L20.22-1.33Q20.29-5.11 20.29-7.80L20.29-7.80L20.29-10.16Q20.29-12.72 20.19-15.21L20.19-15.21L17.50-15.47L17.50-16.37L24.24-18.26L24.70-17.96L24.64-12.78L24.64-7.80Q24.64-5.08 24.70-1.29ZM39.88-9.79L45.52-1.26L47.51-1.03L47.51 0L37.88 0L37.85-1.03L40.44-1.26L36.52-7.27L32.57-1.33L35.10-1.03L35.10 0L28.26 0L28.26-1.03L30.71-1.33L35.89-8.23L30.51-16.47L28.55-16.70L28.55-17.76L37.85-17.76L37.85-16.70L35.53-16.44L39.25-10.79L43.00-16.37L40.57-16.70L40.57-17.76L47.05-17.76L47.05-16.70L44.79-16.37L39.88-9.79ZM68.70 0.53L68.70 0.53Q64.75 0.53 62.24-2.01Q59.73-4.55 59.73-8.93L59.73-8.93Q59.73-13.25 62.32-15.77Q64.91-18.29 68.70-18.29Q72.48-18.29 75.07-15.77Q77.66-13.25 77.66-8.93L77.66-8.93Q77.66-4.55 75.14-2.01Q72.62 0.53 68.70 0.53ZM68.70-0.70L68.70-0.70Q70.76-0.70 71.87-2.76Q72.98-4.81 72.98-8.90L72.98-8.90Q72.98-12.95 71.87-15.01Q70.76-17.07 68.70-17.07L68.70-17.07Q64.41-17.07 64.41-8.90L64.41-8.90Q64.41-0.70 68.70-0.70Z" transform="translate(-1.52734375, 26.927734375)"></path></g> <!----> <!----> <!----> <!----> <!----> <!----> <g fill="#fff" transform="translate(79.1300048828125,0)"><path d="M11.35-12.42L11.35-12.42L10.92-14.67Q10.46-14.81 9.80-14.81L9.80-14.81Q7.69-14.81 6.41-13.01Q5.13-11.21 5.13-8.04L5.13-8.04Q5.13-4.96 6.56-3.20Q7.98-1.44 10.35-1.44L10.35-1.44Q12.88-1.44 14.50-3.60L14.50-3.60L15.10-3.29Q13.26 0.46 8.82 0.46L8.82 0.46Q5.48 0.46 3.31-1.73Q1.15-3.92 1.15-7.67L1.15-7.67Q1.15-11.44 3.52-13.66Q5.88-15.88 9.34-15.88L9.34-15.88Q11.58-15.88 13.18-14.65Q14.78-13.43 15.10-11.56L15.10-11.56Q14.73-10.20 13.43-10.20L13.43-10.20Q11.58-10.20 11.35-12.42ZM23.26-1.12L23.26-1.12L25.48-0.89L25.48 0L17.12 0L17.12-0.89L19.34-1.15Q19.42-3.86 19.42-6.77L19.42-6.77L19.42-21.38L17.09-21.56L17.09-22.36L22.88-23.60L23.28-23.34L23.17-18.76L23.17-6.77Q23.17-3.89 23.26-1.12ZM35.27 0.46L35.27 0.46Q31.84 0.46 29.67-1.74Q27.49-3.95 27.49-7.75L27.49-7.75Q27.49-11.50 29.74-13.69Q31.99-15.88 35.27-15.88Q38.56-15.88 40.81-13.69Q43.05-11.50 43.05-7.75L43.05-7.75Q43.05-3.95 40.86-1.74Q38.67 0.46 35.27 0.46ZM35.27-0.61L35.27-0.61Q37.06-0.61 38.03-2.39Q38.99-4.18 38.99-7.72L38.99-7.72Q38.99-11.24 38.03-13.03Q37.06-14.81 35.27-14.81L35.27-14.81Q31.56-14.81 31.56-7.72L31.56-7.72Q31.56-0.61 35.27-0.61ZM55.56-12.42L55.56-12.42L55.13-14.67Q54.67-14.81 54.00-14.81L54.00-14.81Q51.90-14.81 50.62-13.01Q49.34-11.21 49.34-8.04L49.34-8.04Q49.34-4.96 50.76-3.20Q52.19-1.44 54.55-1.44L54.55-1.44Q57.09-1.44 58.70-3.60L58.70-3.60L59.31-3.29Q57.46 0.46 53.03 0.46L53.03 0.46Q49.68 0.46 47.52-1.73Q45.36-3.92 45.36-7.67L45.36-7.67Q45.36-11.44 47.72-13.66Q50.09-15.88 53.54-15.88L53.54-15.88Q55.79-15.88 57.39-14.65Q58.99-13.43 59.31-11.56L59.31-11.56Q58.93-10.20 57.64-10.20L57.64-10.20Q55.79-10.20 55.56-12.42ZM71.64-10.78L76.94-1.12L78.90-0.89L78.90 0L73.43 0L69.02-8.33L67.38-6.77Q67.38-3.57 67.46-1.12L67.46-1.12L69.51-0.89L69.51 0L61.41 0L61.41-0.89L63.57-1.15Q63.63-4.50 63.63-6.77L63.63-6.77L63.63-21.38L61.30-21.56L61.30-22.36L67.09-23.60L67.49-23.34L67.38-18.76L67.38-8.13L73.43-14.09L70.66-14.50L70.66-15.42L78.10-15.42L78.10-14.50L75.22-14.18L71.64-10.78Z" transform="translate(-1.1527214064210143, 26.927734375)"></path></g></g> <!----></g></g></svg>